<mxfile host="app.diagrams.net" agent="Mozilla/5.0 (Windows NT 10.0; Win64; x64) AppleWebKit/537.36 (KHTML, like Gecko) Chrome/129.0.0.0 Safari/537.36" version="24.8.0">
  <diagram name="PÃ¡gina-1" id="OPH9SKluJ37odU2EyY4j">
    <mxGraphModel dx="1434" dy="790" grid="1" gridSize="10" guides="1" tooltips="1" connect="1" arrows="1" fold="1" page="1" pageScale="1" pageWidth="827" pageHeight="1169" math="0" shadow="0">
      <root>
        <mxCell id="0" />
        <mxCell id="1" parent="0" />
        <mxCell id="yyEkHMtM1PZlOK7Ly_QY-4" value="" style="swimlane;startSize=0;" vertex="1" parent="1">
          <mxGeometry width="800" height="160" as="geometry">
            <mxRectangle width="50" height="40" as="alternateBounds" />
          </mxGeometry>
        </mxCell>
        <mxCell id="yyEkHMtM1PZlOK7Ly_QY-2" value="&lt;font face=&quot;Lucida Console&quot; style=&quot;font-size: 34px;&quot;&gt;&lt;i&gt;Andalucia&lt;/i&gt;&lt;/font&gt;" style="rounded=0;whiteSpace=wrap;html=1;" vertex="1" parent="yyEkHMtM1PZlOK7Ly_QY-4">
          <mxGeometry x="120" y="30" width="560" height="100" as="geometry" />
        </mxCell>
        <mxCell id="yyEkHMtM1PZlOK7Ly_QY-7" value="" style="rounded=0;whiteSpace=wrap;html=1;" vertex="1" parent="yyEkHMtM1PZlOK7Ly_QY-4">
          <mxGeometry x="740" y="10" width="50" height="50" as="geometry" />
        </mxCell>
        <mxCell id="yyEkHMtM1PZlOK7Ly_QY-17" value="" style="group" vertex="1" connectable="0" parent="1">
          <mxGeometry x="750" y="20" width="30" height="30" as="geometry" />
        </mxCell>
        <mxCell id="yyEkHMtM1PZlOK7Ly_QY-13" value="" style="line;strokeWidth=2;html=1;" vertex="1" parent="yyEkHMtM1PZlOK7Ly_QY-17">
          <mxGeometry width="30" height="10" as="geometry" />
        </mxCell>
        <mxCell id="yyEkHMtM1PZlOK7Ly_QY-14" value="" style="line;strokeWidth=2;html=1;" vertex="1" parent="yyEkHMtM1PZlOK7Ly_QY-17">
          <mxGeometry y="10" width="30" height="10" as="geometry" />
        </mxCell>
        <mxCell id="yyEkHMtM1PZlOK7Ly_QY-15" value="" style="line;strokeWidth=2;html=1;" vertex="1" parent="yyEkHMtM1PZlOK7Ly_QY-17">
          <mxGeometry y="20" width="30" height="10" as="geometry" />
        </mxCell>
        <mxCell id="yyEkHMtM1PZlOK7Ly_QY-18" value="Small Image" style="rounded=0;whiteSpace=wrap;html=1;" vertex="1" parent="1">
          <mxGeometry x="10" y="170" width="770" height="390" as="geometry" />
        </mxCell>
        <mxCell id="yyEkHMtM1PZlOK7Ly_QY-20" value="" style="endArrow=none;html=1;rounded=0;exitX=1;exitY=0;exitDx=0;exitDy=0;entryX=0;entryY=1;entryDx=0;entryDy=0;" edge="1" parent="1" source="yyEkHMtM1PZlOK7Ly_QY-18" target="yyEkHMtM1PZlOK7Ly_QY-18">
          <mxGeometry width="50" height="50" relative="1" as="geometry">
            <mxPoint x="120" y="510.0033333333332" as="sourcePoint" />
            <mxPoint x="50" y="526.67" as="targetPoint" />
          </mxGeometry>
        </mxCell>
        <mxCell id="yyEkHMtM1PZlOK7Ly_QY-21" value="" style="endArrow=none;html=1;rounded=0;entryX=0;entryY=0;entryDx=0;entryDy=0;exitX=1;exitY=1;exitDx=0;exitDy=0;" edge="1" parent="1" source="yyEkHMtM1PZlOK7Ly_QY-18" target="yyEkHMtM1PZlOK7Ly_QY-18">
          <mxGeometry width="50" height="50" relative="1" as="geometry">
            <mxPoint x="40" y="226.78" as="sourcePoint" />
            <mxPoint x="130" y="210.00033898305085" as="targetPoint" />
          </mxGeometry>
        </mxCell>
        <mxCell id="yyEkHMtM1PZlOK7Ly_QY-24" value="" style="swimlane;startSize=0;" vertex="1" parent="1">
          <mxGeometry x="10" y="570" width="770" height="300" as="geometry" />
        </mxCell>
        <mxCell id="yyEkHMtM1PZlOK7Ly_QY-25" value="&lt;b&gt;&lt;font style=&quot;font-size: 21px;&quot;&gt;General Information&lt;/font&gt;&lt;/b&gt;" style="text;html=1;align=center;verticalAlign=middle;resizable=0;points=[];autosize=1;strokeColor=none;fillColor=none;" vertex="1" parent="yyEkHMtM1PZlOK7Ly_QY-24">
          <mxGeometry x="280" y="15" width="220" height="40" as="geometry" />
        </mxCell>
        <mxCell id="yyEkHMtM1PZlOK7Ly_QY-26" value="Footer" style="rounded=0;whiteSpace=wrap;html=1;" vertex="1" parent="1">
          <mxGeometry x="10" y="880" width="770" height="90" as="geometry" />
        </mxCell>
      </root>
    </mxGraphModel>
  </diagram>
</mxfile>
